# xmcd CD database file
# Copyright (C) 1997 Ti Kan
# 
# Track frame offsets:
#     150
#     16636
#     32474
#     46428
#     63223
#     85417
#     102993
#     119169
#     136010
#     156003
#     172039
#     190839
#     208618
# 
# Disc length: 2995 seconds
# 
# Revision: 1
# Processed by: cddbd v1.4b41PL1 Copyright (c) Steve Scherf et al.
# Submitted via: DiscPlay 4.0.4
# 
DISCID=a70bb10d
DTITLE=The Cars - Greatest Hits
DYEAR=1900
DGENRE=
TTITLE0=Just What I Needed
TTITLE1=Since You're Gone
TTITLE2=You Might Think
TTITLE3=Good Times Roll
TTITLE4=Touch And Go
TTITLE5=Drive
TTITLE6=Tonight She Comes
TTITLE7=My Best Friend's Girl
TTITLE8=Heartbeat City
TTITLE9=Let's Go
TTITLE10=I'm Not The One
TTITLE11=Magic
TTITLE12=Shake It Up
EXTD=
EXTT0=
EXTT1=
EXTT2=
EXTT3=
EXTT4=
EXTT5=
EXTT6=
EXTT7=
EXTT8=
EXTT9=
EXTT10=
EXTT11=
EXTT12=
PLAYORDER=
